<svg width="234" height="90" viewBox="0 0 234 90" fill="none" xmlns="http://www.w3.org/2000/svg">
<path fill-rule="evenodd" clip-rule="evenodd" d="M212.35 80.7695H202.364C199.595 80.7695 198.206 83.5776 200.164 85.2188L204.823 89.1198C206.224 90.2939 208.492 90.2939 209.891 89.1198L214.549 85.2188C216.507 83.5776 215.121 80.7695 212.35 80.7695Z" fill="#7849FF"/>
<path fill-rule="evenodd" clip-rule="evenodd" d="M170.502 0.87937C169.103 -0.293123 166.833 -0.293123 165.434 0.87937L160.776 4.78091C158.817 6.42425 160.206 9.23084 162.975 9.23084H172.961C175.732 9.23084 177.119 6.42425 175.161 4.78091L170.502 0.87937Z" fill="#7849FF"/>
<path fill-rule="evenodd" clip-rule="evenodd" d="M53.2278 18.4609C46.7245 18.4609 40.9094 21.4371 37.0694 26.0946C33.2294 21.4371 27.4142 18.4609 20.9109 18.4609C9.3814 18.4609 0 27.8158 0 39.3128V66.7992C0 69.4171 2.12721 71.5383 4.75248 71.5383C7.37776 71.5383 9.50497 69.4171 9.50497 66.7992V39.3128C9.50497 33.0401 14.6205 27.939 20.9109 27.939C27.2013 27.939 32.3169 33.0401 32.3169 39.3128V66.7992C32.3169 69.4171 34.4441 71.5383 37.0694 71.5383C39.6946 71.5383 41.8219 69.4171 41.8219 66.7992V39.3128C41.8219 33.0401 46.9374 27.939 53.2278 27.939C59.5182 27.939 64.6338 33.0401 64.6338 39.3128V66.7992C64.6338 69.4171 66.761 71.5383 69.3863 71.5383C72.0115 71.5383 74.1387 69.4171 74.1387 66.7992V39.3128C74.1387 27.8158 64.7573 18.4609 53.2278 18.4609Z" fill="#7849FF"/>
<path fill-rule="evenodd" clip-rule="evenodd" d="M91.5989 39.3141C93.9586 32.6946 100.319 27.9404 107.774 27.9404C116.05 27.9404 122.273 32.4311 124.211 39.3141H91.5989ZM107.773 18.4609C93.0602 18.4609 81.0884 30.3654 81.0884 44.9996C81.0884 59.6338 93.0602 71.5383 107.773 71.5383C114.902 71.5383 121.603 68.7783 126.643 63.7643C128.503 61.9142 128.503 58.9135 126.643 57.0633C124.781 55.2132 121.765 55.2132 119.905 57.0633C116.663 60.2859 112.357 62.0602 107.773 62.0602C99.6246 62.0602 92.7839 56.379 91.0455 48.7908H129.61C132.243 48.7908 134.376 46.6697 134.376 44.0518C134.376 29.4631 122.939 18.4609 107.773 18.4609Z" fill="#7849FF"/>
<path fill-rule="evenodd" clip-rule="evenodd" d="M148.277 0C145.718 0 143.644 2.10664 143.644 4.70651V66.8325C143.644 69.4324 145.718 71.539 148.277 71.539C150.837 71.539 152.911 69.4324 152.911 66.8325V4.70651C152.911 2.10664 150.837 0 148.277 0Z" fill="#7849FF"/>
<path fill-rule="evenodd" clip-rule="evenodd" d="M167.63 18.4609C165.07 18.4609 162.996 20.5821 162.996 23.2V66.7992C162.996 69.4171 165.07 71.5383 167.63 71.5383C170.189 71.5383 172.263 69.4171 172.263 66.7992V23.2C172.263 20.5821 170.189 18.4609 167.63 18.4609Z" fill="#7849FF"/>
<path fill-rule="evenodd" clip-rule="evenodd" d="M207.357 62.0615C197.912 62.0615 190.229 54.407 190.229 45.001C190.229 35.5949 197.912 27.9404 207.357 27.9404C216.802 27.9404 224.485 35.5949 224.485 45.001C224.485 54.407 216.802 62.0615 207.357 62.0615ZM207.357 18.4609C192.664 18.4609 180.713 30.3654 180.713 44.9996C180.713 59.6338 192.664 71.5383 207.357 71.5383C222.049 71.5383 234 59.6338 234 44.9996C234 30.3654 222.049 18.4609 207.357 18.4609Z" fill="#7849FF"/>
</svg>
